<?xml version="1.0" encoding="UTF-8"?> <svg xmlns="http://www.w3.org/2000/svg" width="49" height="33" viewBox="0 0 49 33" fill="none"><g id=".''"><path id="Vector" d="M37.2797 17.0574C37.3357 20.2477 38.541 22.7053 41.2496 24.3587C43.1158 25.4967 45.1701 26.0389 47.2984 26.3727C47.5561 26.413 47.8137 26.4534 48.1117 26.5004V32.5C47.2559 32.435 46.427 32.3902 45.6025 32.3051C42.5646 31.987 39.6119 31.3305 36.8451 29.9886C31.9321 27.6049 29.0196 23.6597 27.895 18.3703C27.2543 15.3615 27.0145 12.3169 27.7001 9.2768C28.4663 5.8715 30.2137 3.08678 33.4488 1.61265C37.2842 -0.137045 41.0838 0.134034 44.5092 2.73057C46.0103 3.86865 46.7944 5.53994 47.0901 7.41733C47.4575 9.74726 47.1909 11.9719 45.7885 13.9232C44.0522 16.3383 41.5677 17.2255 38.6822 17.1829C38.4581 17.1807 38.2363 17.1515 38.0123 17.1314C37.7927 17.1112 37.5732 17.0888 37.2797 17.0597V17.0574Z" fill="#F36600"></path><path id="Vector_2" d="M10.9737 17.0664C11.0118 19.002 11.424 20.7405 12.5778 22.2527C14.1281 24.2847 16.3057 25.2772 18.6871 25.9022C19.6931 26.1666 20.7281 26.3212 21.79 26.5362V32.4977C20.8311 32.4238 19.9036 32.3857 18.9874 32.2782C16.5544 31.9959 14.1684 31.4941 11.8833 30.5822C7.28614 28.7474 3.98614 25.6199 2.31038 20.9041C1.067 17.4047 0.681665 13.7888 1.22382 10.1191C1.72118 6.74968 3.29388 3.94928 6.22647 2.08533C8.58553 0.58655 11.1977 0.288587 13.9153 0.783699C16.2855 1.21608 18.2682 2.28472 19.6191 4.34581C21.492 7.20223 21.3621 11.6336 19.2607 14.2279C17.4886 16.4144 15.0869 17.2411 12.3314 17.1739C11.9057 17.1627 11.48 17.1067 10.9715 17.0641L10.9737 17.0664Z" fill="#F36600"></path></g></svg> 